<?xml version="1.0" standalone="no"?>
<!DOCTYPE svg PUBLIC "-//W3C//DTD SVG 1.1//EN" "http://www.w3.org/Graphics/SVG/1.1/DTD/svg11.dtd" >
<svg xmlns="http://www.w3.org/2000/svg">
<metadata>
<json>
<![CDATA[
{
	"fontFamily": "euxicon",
	"majorVersion": 1,
	"minorVersion": 0,
	"version": "Version 1.0",
	"fontId": "euxicon",
	"psName": "euxicon",
	"subFamily": "Regular",
	"fullName": "euxicon",
	"description": "Font generated by IcoMoon."
}
]]>
</json>
</metadata>
<defs>
<font id="euxicon" horiz-adv-x="1024">
<font-face units-per-em="1024" ascent="960" descent="-64" />
<missing-glyph horiz-adv-x="1024" />
<glyph unicode="&#x20;" horiz-adv-x="512" d="" />
<glyph unicode="&#xe900;" glyph-name="dashboard" data-tags="dashboard" d="M512-57.679c279.279 0 505.679 226.4 505.679 505.679s-226.4 505.679-505.679 505.679c-279.279 0-505.679-226.4-505.679-505.679s226.4-505.679 505.679-505.679v0 0zM512 5.531c-244.369 0-442.469 198.1-442.469 442.469s198.1 442.469 442.469 442.469c244.369 0 442.469-198.1 442.469-442.469s-198.1-442.469-442.469-442.469v0 0zM227.556 725.061h596.631v-98.967h-596.631v98.967zM227.556 559.69h106.717v-376.109h-106.717v376.109zM394.43 559.69h428.324v-376.109h-428.324v376.109z" />
<glyph unicode="&#xe901;" glyph-name="appliance_ordering" data-tags="appliance_ordering" d="M512-57.679c279.279 0 505.679 226.4 505.679 505.679s-226.4 505.679-505.679 505.679c-279.279 0-505.679-226.4-505.679-505.679s226.4-505.679 505.679-505.679v0 0zM512 5.531c-244.369 0-442.469 198.1-442.469 442.469s198.1 442.469 442.469 442.469c244.369 0 442.469-198.1 442.469-442.469s-198.1-442.469-442.469-442.469v0 0zM525.605 381.324v0 0 0c-76.774 44.017-116.717-4.37-116.717-4.515 0-62.147 52.245-112.551 116.717-112.551s116.717 50.404 116.717 112.551c0 0.144-39.943-39.502-116.717 4.515zM525.605 514.886v0 0 0c-79.089 0-143.188-61.811-143.188-138.077 0-76.243 64.098-138.053 143.188-138.053s143.188 61.811 143.188 138.053c0 76.267-64.098 138.077-143.188 138.077zM282.809 715.999v-48.027h124.511v48.027h-124.511zM594.087 716.023v0 0 0c-13.746 0-24.902-10.758-24.902-24.013 0-13.279 11.156-24.013 24.902-24.013s24.902 10.734 24.902 24.013c0 13.255-11.156 24.013-24.902 24.013zM668.793 716.023v0 0 0c-13.746 0-24.902-10.758-24.902-24.013 0-13.279 11.156-24.013 24.902-24.013s24.902 10.734 24.902 24.013c0 13.255-11.156 24.013-24.902 24.013zM741.931 716.023v0 0 0c-13.746 0-24.902-10.758-24.902-24.013 0-13.279 11.156-24.013 24.902-24.013 13.771 0 24.902 10.734 24.902 24.013 0 13.255-11.131 24.013-24.902 24.013zM257.907 764.049h522.946c13.746 0 24.902-10.758 24.902-24.013v-168.118c0 0-141.644 48.051-286.6 48.051-141.395 0-286.151-48.051-286.151-48.051v168.118c0 13.255 11.156 24.013 24.902 24.013v0 0 0zM805.755 547.905v-360.201c0-13.255-11.156-24.013-24.902-24.013h-522.946c-13.746 0-24.902 10.758-24.902 24.013v360.201c0 0 145.977 49.54 286.151 49.54 146.076 0 286.6-49.54 286.6-49.54v0 0 0z" />
<glyph unicode="&#xe902;" glyph-name="connected_services" data-tags="connected_services" d="M512-57.679c279.279 0 505.679 226.4 505.679 505.679s-226.4 505.679-505.679 505.679c-279.279 0-505.679-226.4-505.679-505.679s226.4-505.679 505.679-505.679v0 0zM512 5.531c-244.369 0-442.469 198.1-442.469 442.469s198.1 442.469 442.469 442.469c244.369 0 442.469-198.1 442.469-442.469s-198.1-442.469-442.469-442.469v0 0zM294.95 353.185c35.235-88.863 121.964-151.704 223.371-151.704s188.136 62.84 223.371 151.704h-223.371l-50.568 88.494 50.568 88.494h223.371c-35.235 88.863-121.964 151.704-223.371 151.704s-188.136-62.84-223.371-151.704h-231.74v-176.988h231.74z" />
<glyph unicode="&#xe903;" glyph-name="credit_card_services" data-tags="credit_card_services" d="M512-57.351c279.097 0 505.351 226.253 505.351 505.351s-226.253 505.351-505.351 505.351c-279.097 0-505.351-226.253-505.351-505.351s226.253-505.351 505.351-505.351v0 0zM512 9.143c-242.374 0-438.857 196.483-438.857 438.857s196.483 438.857 438.857 438.857c242.374 0 438.857-196.483 438.857-438.857s-196.483-438.857-438.857-438.857v0 0zM772.971 688.82c14.033 0 26.047-5.044 36.040-15.133s14.99-22.216 14.99-36.384v-391.526c0-14.167-4.997-26.295-14.99-36.384s-22.007-15.133-36.040-15.133h-510.306c-14.033 0-26.047 5.044-36.040 15.133s-14.99 22.216-14.99 36.384v391.526c0 14.167 4.997 26.295 14.99 36.384s22.007 15.133 36.040 15.133h510.306zM262.665 647.607c-2.764 0-5.156-1.020-7.176-3.059s-3.030-4.454-3.030-7.245v-72.123h530.719v72.123c0 2.79-1.010 5.205-3.030 7.245s-4.412 3.059-7.176 3.059h-510.306zM772.971 235.474c2.764 0 5.156 1.020 7.176 3.059s3.030 4.454 3.030 7.245v195.763h-530.719v-195.763c0-2.79 1.010-5.205 3.030-7.245s4.412-3.059 7.176-3.059h510.306zM293.283 276.687v41.213h81.649v-41.213h-81.649zM415.757 276.687v41.213h122.474v-41.213h-122.474z" />
<glyph unicode="&#xe904;" glyph-name="delivery_tracs" data-tags="delivery_tracs" horiz-adv-x="1170" d="M1014.515 391.111c-28.269-252.498-242.468-448.79-502.515-448.79-279.279 0-505.679 226.4-505.679 505.679s226.4 505.679 505.679 505.679c150.779 0 286.146-65.991 378.793-170.667h-89.739c-77.537 66.96-178.566 107.457-289.054 107.457-244.369 0-442.469-198.1-442.469-442.469s198.1-442.469 442.469-442.469c225.093 0 410.929 168.081 438.846 385.58h63.669zM367.648 275.271c0 14.518-5.305 27.082-15.914 37.692s-23.173 15.914-37.692 15.914c-14.518 0-27.082-5.305-37.692-15.914s-15.914-23.173-15.914-37.692c0-14.518 5.305-27.082 15.914-37.692s23.173-15.914 37.692-15.914c14.518 0 27.082 5.305 37.692 15.914s15.914 23.173 15.914 37.692v0 0zM206.829 489.697h160.819v107.213h-66.17c-3.63 0-6.701-1.256-9.214-3.769l-81.666-81.666c-2.513-2.513-3.769-5.584-3.769-9.214v-12.564zM742.893 275.271c0 14.518-5.305 27.082-15.914 37.692s-23.173 15.914-37.692 15.914c-14.518 0-27.082-5.305-37.692-15.914s-15.914-23.173-15.914-37.692c0-14.518 5.305-27.082 15.914-37.692s23.173-15.914 37.692-15.914c14.518 0 27.082 5.305 37.692 15.914s15.914 23.173 15.914 37.692v0 0zM1136.116 685.929c-3.207-6.182-11.565-11.193-18.473-11.193h-138.963l-43.245-58.873h125.393c7.041 0 9.573-4.833 5.85-10.501l-30.354-46.203c-3.81-5.799-12.54-10.497-19.451-10.492l-111.249 0.079-43.795-55.282h104.129c7.030 0 9.697-4.735 5.935-10.613l-30.51-47.664c-3.752-5.861-12.329-10.613-19.465-10.613h-95.936l-29.483-37.531h88.421c6.953 0 9.15-4.536 4.946-10.082l-39.682-52.346c-4.221-5.568-13.35-10.082-20.186-10.082h-42.733c0 0 9.234-12.46 9.234-39.263 0-29.595-10.47-54.863-31.41-75.803s-46.207-31.41-75.803-31.41c-29.595 0-54.863 10.47-75.803 31.41s-31.41 46.207-31.41 75.803h-160.819c0-29.595-10.47-54.863-31.41-75.803s-46.207-31.41-75.803-31.41c-29.595 0-54.863 10.47-75.803 31.41s-31.41 46.207-31.41 75.803h-26.803c-0.838 0-3.979-0.070-9.423-0.209s-9.004-0.14-10.679 0c-1.675 0.14-4.816 0.419-9.423 0.838s-7.887 1.256-9.842 2.513c-1.954 1.256-4.258 2.862-6.91 4.816s-4.537 4.537-5.654 7.748c-1.117 3.211-1.675 6.91-1.675 11.098 0 7.259 2.652 13.541 7.957 18.846s11.587 7.957 18.846 7.957v134.016c0 2.234-0.070 7.12-0.209 14.658s-0.14 12.843 0 15.914c0.14 3.071 0.489 7.887 1.047 14.449s1.466 11.726 2.722 15.496c1.256 3.769 3.211 8.027 5.863 12.773s5.793 8.934 9.423 12.564l82.922 82.922c5.305 5.305 12.355 9.772 21.149 13.402s16.961 5.444 24.5 5.444h67.008v80.409c0 7.259 2.652 13.541 7.957 18.846s11.587 7.957 18.846 7.957h766.36c6.931 0 9.986-4.943 6.744-11.193l-31.439-60.606z" />
<glyph unicode="&#xe905;" glyph-name="dms" data-tags="dms" horiz-adv-x="1170" d="M1014.515 391.111c-28.269-252.498-242.468-448.79-502.515-448.79-279.279 0-505.679 226.4-505.679 505.679s226.4 505.679 505.679 505.679c150.779 0 286.146-65.991 378.793-170.667h-89.739c-77.537 66.96-178.566 107.457-289.054 107.457-244.369 0-442.469-198.1-442.469-442.469s198.1-442.469 442.469-442.469c225.093 0 410.929 168.081 438.846 385.58h63.669zM367.648 275.271c0 14.518-5.305 27.082-15.914 37.692s-23.173 15.914-37.692 15.914c-14.518 0-27.082-5.305-37.692-15.914s-15.914-23.173-15.914-37.692c0-14.518 5.305-27.082 15.914-37.692s23.173-15.914 37.692-15.914c14.518 0 27.082 5.305 37.692 15.914s15.914 23.173 15.914 37.692v0 0zM206.829 489.697h160.819v107.213h-66.17c-3.63 0-6.701-1.256-9.214-3.769l-81.666-81.666c-2.513-2.513-3.769-5.584-3.769-9.214v-12.564zM742.893 275.271c0 14.518-5.305 27.082-15.914 37.692s-23.173 15.914-37.692 15.914c-14.518 0-27.082-5.305-37.692-15.914s-15.914-23.173-15.914-37.692c0-14.518 5.305-27.082 15.914-37.692s23.173-15.914 37.692-15.914c14.518 0 27.082 5.305 37.692 15.914s15.914 23.173 15.914 37.692v0 0zM1136.116 685.929c-3.207-6.182-11.565-11.193-18.473-11.193h-138.963l-43.245-58.873h125.393c7.041 0 9.573-4.833 5.85-10.501l-30.354-46.203c-3.81-5.799-12.54-10.497-19.451-10.492l-111.249 0.079-43.795-55.282h104.129c7.030 0 9.697-4.735 5.935-10.613l-30.51-47.664c-3.752-5.861-12.329-10.613-19.465-10.613h-95.936l-29.483-37.531h88.421c6.953 0 9.15-4.536 4.946-10.082l-39.682-52.346c-4.221-5.568-13.35-10.082-20.186-10.082h-42.733c0 0 9.234-12.46 9.234-39.263 0-29.595-10.47-54.863-31.41-75.803s-46.207-31.41-75.803-31.41c-29.595 0-54.863 10.47-75.803 31.41s-31.41 46.207-31.41 75.803h-160.819c0-29.595-10.47-54.863-31.41-75.803s-46.207-31.41-75.803-31.41c-29.595 0-54.863 10.47-75.803 31.41s-31.41 46.207-31.41 75.803h-26.803c-0.838 0-3.979-0.070-9.423-0.209s-9.004-0.14-10.679 0c-1.675 0.14-4.816 0.419-9.423 0.838s-7.887 1.256-9.842 2.513c-1.954 1.256-4.258 2.862-6.91 4.816s-4.537 4.537-5.654 7.748c-1.117 3.211-1.675 6.91-1.675 11.098 0 7.259 2.652 13.541 7.957 18.846s11.587 7.957 18.846 7.957v134.016c0 2.234-0.070 7.12-0.209 14.658s-0.14 12.843 0 15.914c0.14 3.071 0.489 7.887 1.047 14.449s1.466 11.726 2.722 15.496c1.256 3.769 3.211 8.027 5.863 12.773s5.793 8.934 9.423 12.564l82.922 82.922c5.305 5.305 12.355 9.772 21.149 13.402s16.961 5.444 24.5 5.444h67.008v80.409c0 7.259 2.652 13.541 7.957 18.846s11.587 7.957 18.846 7.957h766.36c6.931 0 9.986-4.943 6.744-11.193l-31.439-60.606z" />
<glyph unicode="&#xe906;" glyph-name="esvs" data-tags="esvs" d="M974.123 652.816c27.788-62.605 43.228-131.908 43.228-204.816 0-279.097-226.253-505.351-505.351-505.351s-505.351 226.253-505.351 505.351c0 279.097 226.253 505.351 505.351 505.351 126.004 0 241.236-46.116 329.741-122.39h-115.252c-63.421 35.597-136.585 55.897-214.489 55.897-242.374 0-438.857-196.483-438.857-438.857s196.483-438.857 438.857-438.857c242.374 0 438.857 196.483 438.857 438.857 0 73.974-18.302 143.673-50.626 204.816h73.892zM916.107 787.117h-74.427c-13.397 0-25.305-8.931-28.282-22.328l-22.328-96.756h-574.58c-8.931 0-17.863-4.466-23.817-10.42-5.954-7.443-7.443-16.374-5.954-25.305l59.542-267.939c2.977-13.397 14.885-23.817 29.771-23.817h436.145l-28.282-119.084h-363.206c-16.374 0-29.771-13.397-29.771-29.771s13.397-29.771 29.771-29.771h32.748c-1.489-4.466-2.977-8.931-2.977-14.885 0-25.305 19.351-44.656 44.656-44.656s44.656 19.351 44.656 44.656c0 5.954-1.489 10.42-2.977 14.885h154.809c-1.489-4.466-2.977-8.931-2.977-14.885 0-25.305 19.351-44.656 44.656-44.656s44.656 19.351 44.656 44.656c0 5.954-1.489 10.42-2.977 14.885h32.748c13.397 0 25.305 14.885 28.282 29.771v0l128.015 535.877h50.611c16.374 0 29.771 13.397 29.771 29.771s-11.908 29.771-28.282 29.771v0 0z" />
<glyph unicode="&#xe907;" glyph-name="gift_cards" data-tags="gift_cards" d="M512-57.351c279.097 0 505.351 226.253 505.351 505.351s-226.253 505.351-505.351 505.351c-279.097 0-505.351-226.253-505.351-505.351s226.253-505.351 505.351-505.351v0 0zM512 9.143c-242.374 0-438.857 196.483-438.857 438.857s196.483 438.857 438.857 438.857c242.374 0 438.857-196.483 438.857-438.857s-196.483-438.857-438.857-438.857v0 0zM571.844 263.481v297.558h-132.987v-297.558c0-6.926 2.493-12.26 7.481-16s11.359-5.61 19.117-5.61h79.792c7.758 0 14.13 1.87 19.117 5.61s7.481 9.074 7.481 16v0 0zM382.338 614.234h81.039l-52.364 66.909c-7.204 8.589-16.762 12.883-28.675 12.883-11.082 0-20.502-3.879-28.26-11.636s-11.636-17.177-11.636-28.26c0-11.082 3.879-20.502 11.636-28.26s17.177-11.636 28.26-11.636v0 0zM668.26 654.13c0 11.082-3.879 20.502-11.636 28.26s-17.177 11.636-28.26 11.636c-11.913 0-21.472-4.294-28.675-12.883l-51.948-66.909h80.623c11.082 0 20.502 3.879 28.26 11.636s11.636 17.177 11.636 28.26v0 0zM824.519 547.74v-132.987c0-3.879-1.247-7.065-3.74-9.558s-5.68-3.74-9.558-3.74h-39.896v-172.883c0-11.082-3.879-20.502-11.636-28.26s-17.177-11.636-28.26-11.636h-452.156c-11.082 0-20.502 3.879-28.26 11.636s-11.636 17.177-11.636 28.26v172.883h-39.896c-3.879 0-7.065 1.247-9.558 3.74s-3.74 5.68-3.74 9.558v132.987c0 3.879 1.247 7.065 3.74 9.558s5.68 3.74 9.558 3.74h182.857c-25.766 0-47.723 9.074-65.87 27.221s-27.221 40.104-27.221 65.87c0 25.766 9.074 47.723 27.221 65.87s40.104 27.221 65.87 27.221c29.645 0 52.918-10.667 69.818-32l53.195-68.571 53.195 68.571c16.901 21.333 40.173 32 69.818 32 25.766 0 47.723-9.074 65.87-27.221s27.221-40.104 27.221-65.87c0-25.766-9.074-47.723-27.221-65.87s-40.104-27.221-65.87-27.221h182.857c3.879 0 7.065-1.247 9.558-3.74s3.74-5.68 3.74-9.558v0 0z" />
<glyph unicode="&#xe908;" glyph-name="hd_com" data-tags="hd_com" d="M512-57.679c279.279 0 505.679 226.4 505.679 505.679s-226.4 505.679-505.679 505.679c-279.279 0-505.679-226.4-505.679-505.679s226.4-505.679 505.679-505.679v0 0zM512 5.531c-244.369 0-442.469 198.1-442.469 442.469s198.1 442.469 442.469 442.469c244.369 0 442.469-198.1 442.469-442.469s-198.1-442.469-442.469-442.469v0 0zM561.993 567.361c0-24.044-19.553-43.536-43.672-43.536v0c-24.119 0-43.672 19.492-43.672 43.536v74.851c0 24.044 19.553 43.536 43.672 43.536v0c24.119 0 43.672-19.492 43.672-43.536v-74.851zM545.903 710.9c23.094-9.497 39.163-30.532 39.163-54.974v-103.803c0-24.443-16.067-45.477-39.163-54.974v-55.811h225.257v187.424c0 106.137-89.188 192.178-199.207 192.178h-26.050v-110.039zM265.481 279.883c0-106.139 89.188-192.179 199.207-192.179h107.265c110.019 0 199.207 86.040 199.207 192.179v116.157h-505.679v-116.157zM490.738 441.337v55.81c-23.094 9.497-39.163 30.532-39.163 54.974v103.803c0 24.443 16.067 45.477 39.163 54.974v110.040h-26.050c-110.019 0-199.207-86.040-199.207-192.178v-187.424h225.257z" />
<glyph unicode="&#xe909;" glyph-name="hd_quote_center" data-tags="hd_quote_center" d="M509.602-59.204c281.445 0 509.602 228.157 509.602 509.602s-228.157 509.602-509.602 509.602c-281.445 0-509.602-228.157-509.602-509.602s228.157-509.602 509.602-509.602v0zM509.602 4.497c-246.265 0-445.902 199.637-445.902 445.902s199.637 445.902 445.902 445.902c246.265 0 445.902-199.637 445.902-445.902s-199.637-445.902-445.902-445.902v0zM360.429 203.404v0c-102.966 0-237.203 59.108-237.203 246.93s137.339 246.93 237.203 246.93c99.864 0 237.203-45.39 237.203-246.93 0-93.981-29.19-154.007-70.787-191.31-3.53-3.166 110.267-113.28 110.267-113.28h-144.644c0 0-57.579 66.258-63.395 64.951-23.233-5.221-46.652-7.291-68.644-7.291zM360.429 291.3c53.823 0 123.992 29.233 123.992 159.034s-71.791 159.034-123.992 159.034c-52.201 0-123.992-38.068-123.992-159.034s70.169-159.034 123.992-159.034v0zM682.653 691.872c-51.676 0-99.579-16.158-138.931-43.697 23.606-18.811 43.94-44.14 58.151-77.795 23.112 15.448 50.894 24.455 80.78 24.455 46.356 0 87.65-21.67 114.306-55.432 22.475 0.324 22.475 0.324 22.475 0.324l54.442 58.853c-44.402 56.788-113.549 93.292-191.222 93.292v0zM546.111 249.987c19.682 17.65 43.041 49.424 55.39 78.439 23.186-15.6 51.106-24.704 81.152-24.704 48.314 0 91.129 23.539 117.605 59.774 10.074 0.014 17.555 0.014 17.555 0.014l58.631-60.189c-44.277-58.695-114.603-96.638-193.791-96.636-93.444 0.001-137.659 42.301-136.542 43.302z" />
<glyph unicode="&#xe90a;" glyph-name="heat_map" data-tags="heat_map" d="M512-57.679c279.279 0 505.679 226.4 505.679 505.679s-226.4 505.679-505.679 505.679c-279.279 0-505.679-226.4-505.679-505.679s226.4-505.679 505.679-505.679v0 0zM512 5.531c-244.369 0-442.469 198.1-442.469 442.469s198.1 442.469 442.469 442.469c244.369 0 442.469-198.1 442.469-442.469s-198.1-442.469-442.469-442.469v0 0zM453.201 471.192l-89.758 103.664c0 0 83.437 79.644 131.477 127.684 55.625 56.889 150.44 53.096 188.365 10.114 31.605-35.398 24.020-99.872-32.869-136.533-82.173-54.36-108.721-32.869-197.215-104.928v0 0zM549.28 443.38c-77.116-58.153-85.965-98.607-164.346-149.175l67.002-120.099c74.588 41.719 103.664 51.832 164.346 80.909 72.059 34.133 99.872 123.891 73.323 173.195-22.756 40.454-85.965 55.625-140.326 15.17v0 0zM419.068 447.172l-84.701 96.079c0 0-56.889-58.153-16.435-102.4 42.983-39.19 101.136 6.321 101.136 6.321v0 0zM310.347 176.634c29.077-53.096 102.4-18.963 102.4-18.963l-61.946 112.514c0 0-61.946-39.19-40.454-93.551v0 0z" />
<glyph unicode="&#xe90b;" glyph-name="my_apron" data-tags="my_apron" d="M512-57.679c279.279 0 505.679 226.4 505.679 505.679s-226.4 505.679-505.679 505.679c-279.279 0-505.679-226.4-505.679-505.679s226.4-505.679 505.679-505.679v0 0zM512 5.531c-244.369 0-442.469 198.1-442.469 442.469s198.1 442.469 442.469 442.469c244.369 0 442.469-198.1 442.469-442.469s-198.1-442.469-442.469-442.469v0 0zM675.289 732.078v81.995c0 17.755-14.295 32.149-31.932 32.149s-31.935-14.391-31.935-32.149v-51.932h-181.778v51.932c0 17.755-14.295 32.149-31.935 32.149s-31.932-14.391-31.932-32.149c0 0 0.446-61.463 0.012-81.995-0.036-1.698-9.606-170.246-93.36-170.246h-76.15c-17.639 0-31.935-14.391-31.935-32.149 0-17.755 14.295-32.149 31.935-32.149h44.215v-336.32c0-17.755 14.295-32.149 31.935-32.149h493.75c17.637 0 31.935 14.391 31.935 32.149v336.32h51.586c17.637 0 31.935 14.391 31.935 32.149 0 17.755-14.3 32.149-31.937 32.149h-83.518c-85.005 0-90.891 168.599-90.891 170.246v0z" />
<glyph unicode="&#xe90c;" glyph-name="my_numbers" data-tags="my_numbers" d="M512-57.679c279.279 0 505.679 226.4 505.679 505.679s-226.4 505.679-505.679 505.679c-279.279 0-505.679-226.4-505.679-505.679s226.4-505.679 505.679-505.679v0 0 0zM512 5.531c-244.369 0-442.469 198.1-442.469 442.469s198.1 442.469 442.469 442.469c244.369 0 442.469-198.1 442.469-442.469s-198.1-442.469-442.469-442.469v0 0 0zM774.906 247.835v336.066c0 6.953-5.853 11.588-11.706 11.588h-93.644c-5.853 0-11.706-4.635-11.706-11.588v-336.066h-23.411v498.305c0 6.953-5.853 11.588-11.706 11.588h-93.644c-5.853 0-11.706-4.635-11.706-11.588v-498.305h-23.411v243.358c0 6.953-5.853 11.588-11.706 11.588h-93.644c-5.853 0-11.706-4.635-11.706-11.588v-243.358h-23.411v104.296c0 6.953-5.853 11.588-11.706 11.588h-93.644c-5.853 0-11.706-4.635-11.706-11.588v-104.296h-46.822v-46.354h632.099v46.354h-46.822z" />
<glyph unicode="&#xe90d;" glyph-name="pro_paint" data-tags="pro_paint" d="M512-57.679c279.279 0 505.679 226.4 505.679 505.679s-226.4 505.679-505.679 505.679c-279.279 0-505.679-226.4-505.679-505.679s226.4-505.679 505.679-505.679v0 0zM512 5.531c-244.369 0-442.469 198.1-442.469 442.469s198.1 442.469 442.469 442.469c244.369 0 442.469-198.1 442.469-442.469s-198.1-442.469-442.469-442.469v0 0zM501.015 199.386c-14.395 0-26.075-11.323-26.075-25.298 0-13.954 11.68-25.277 26.075-25.277 14.417 0 26.075 11.323 26.075 25.277 0 13.976-11.658 25.298-26.075 25.298v0 0 0zM553.188 163.563c0-27.93-23.361-50.575-52.172-50.575s-52.172 22.646-52.172 50.575v252.854h104.345v-252.854zM787.93 492.247h-260.84v-50.554h-52.15v75.852h312.99v151.704h-26.097v-75.852c0-13.976-11.68-25.298-26.075-25.298h-469.485c-14.395 0-26.075 11.323-26.075 25.298v101.129c0 13.976 11.68 25.277 26.075 25.277h469.485c14.395 0 26.075-11.301 26.075-25.277h52.172v-202.279h-26.075z" />
<glyph unicode="&#xe90e;" glyph-name="pro_xtra" data-tags="pro_xtra" d="M512-64c282.77 0 512 229.23 512 512s-229.23 512-512 512c-282.77 0-512-229.23-512-512s229.23-512 512-512v0 0zM512 0c-247.424 0-448 200.576-448 448s200.576 448 448 448c247.424 0 448-200.576 448-448s-200.576-448-448-448v0 0zM384.514 642.686c0-28-8.257-49.628-24.771-64.886s-39.971-22.886-70.371-22.886h-19.029v-83.143h-67.714v250.629h86.743c31.657 0 55.428-6.914 71.314-20.743s23.829-33.486 23.829-58.971v0 0zM270.343 610.114h12.343c10.171 0 18.257 2.857 24.257 8.571s9 13.6 9 23.657c0 16.914-9.371 25.371-28.114 25.371h-17.486v-57.6zM482.571 562.971v-91.2h-67.714v250.629h82.114c68.115 0 102.171-24.685 102.171-74.057 0-29.029-14.171-51.486-42.514-67.371l73.029-109.2h-76.8l-53.143 91.2h-17.143zM482.571 613.886h12.686c23.657 0 35.486 10.457 35.486 31.371 0 17.257-11.6 25.886-34.8 25.886h-13.371v-57.257zM872.343 597.429c0-42.172-10.343-74.228-31.029-96.171s-50.971-32.914-90.857-32.914c-39.314 0-69.457 11.028-90.429 33.086s-31.457 54.171-31.457 96.343c0 41.714 10.428 73.571 31.286 95.571s51.171 33 90.943 33c39.886 0 70.114-10.914 90.686-32.743s30.857-53.886 30.857-96.171v0 0zM699.886 597.429c0-48.457 16.857-72.686 50.571-72.686 17.143 0 29.857 5.886 38.143 17.657s12.429 30.114 12.429 55.029c0 25.029-4.2 43.514-12.6 55.457s-20.943 17.914-37.629 17.914c-33.943 0-50.914-24.457-50.914-73.371v0 0zM390.2 199.314h-55.629l-53.429 86.9-53.429-86.9h-52.171l76.214 118.486-71.343 111.257h53.743l49.5-82.657 48.557 82.657h52.486l-72.129-113.929 77.629-115.814zM489.357 234.357c8.381 0 18.438 1.833 30.171 5.5v-35.671c-11.943-5.343-26.609-8.014-44-8.014-19.172 0-33.131 4.845-41.879 14.536s-13.121 24.226-13.121 43.607v84.7h-22.943v20.271l26.4 16.029 13.829 37.086h30.643v-37.4h49.186v-35.986h-49.186v-84.7c0-6.81 1.912-11.838 5.736-15.086s8.879-4.871 15.164-4.871v0zM653.1 378.3c6.495 0 11.89-0.471 16.186-1.414l-3.614-44.943c-3.876 1.048-8.59 1.571-14.143 1.571-15.295 0-27.212-3.929-35.75-11.786s-12.807-18.857-12.807-33v-89.414h-47.929v175.686h36.3l7.071-29.543h2.357c5.448 9.848 12.807 17.783 22.079 23.807s19.355 9.036 30.25 9.036v0zM812.757 199.314l-9.271 23.886h-1.257c-8.067-10.162-16.369-17.207-24.907-21.136s-19.669-5.893-33.393-5.893c-16.867 0-30.145 4.819-39.836 14.457s-14.536 23.362-14.536 41.171c0 18.648 6.521 32.398 19.564 41.25s32.712 13.75 59.007 14.693l30.486 0.943v7.7c0 17.81-9.114 26.714-27.343 26.714-14.038 0-30.538-4.243-49.5-12.729l-15.871 32.371c20.219 10.581 42.638 15.871 67.257 15.871 23.572 0 41.643-5.133 54.214-15.4s18.857-25.876 18.857-46.829v-117.071h-33.471zM798.614 280.714l-18.543-0.629c-13.933-0.419-24.305-2.933-31.114-7.543s-10.214-11.629-10.214-21.057c0-13.514 7.752-20.271 23.257-20.271 11.105 0 19.983 3.195 26.636 9.586s9.979 14.876 9.979 25.457v14.457z" />
<glyph unicode="&#xe90f;" glyph-name="pro_direct" data-tags="prodirect" d="M202.491 847.925c85.536 66.294 192.914 105.754 309.509 105.754 279.279 0 505.679-226.4 505.679-505.679s-226.4-505.679-505.679-505.679c-279.279 0-505.679 226.4-505.679 505.679 0 95.4 26.418 184.63 72.337 260.773l52.683-35.076c-39.264-66.080-61.811-143.255-61.811-225.697 0-244.369 198.1-442.469 442.469-442.469s442.469 198.1 442.469 442.469c0 244.369-198.1 442.469-442.469 442.469-95.7 0-184.305-30.382-256.693-82.027l-52.815 39.483zM361.181 305.736l-109.575 336.863-110.048 82.779c-16.744 12.585-20.115 36.361-7.529 53.104s36.361 20.115 53.104 7.529l119.595-89.893c6.231-4.683 10.867-11.173 13.278-18.585l107.747-331.245c-25.548-7.821-48.343-21.942-66.573-40.552v0zM632.026 190.322l212.967 77.384c19.687 7.153 29.847 28.911 22.693 48.598s-28.911 29.847-48.598 22.693l-203.222-73.996c10.393-21.059 16.232-44.768 16.232-69.841 0-1.619-0.024-3.232-0.073-4.839v0zM601.424 288.74l195.91 71.305c13.174 4.795 19.992 19.268 15.238 32.329l-69.261 190.292c-4.724 12.979-19.284 19.764-32.454 14.97l-273.056-99.384c-13.174-4.795-19.992-19.268-15.238-32.329l41.155-113.072c3.423 0.221 6.877 0.334 10.356 0.334 52.253 0 98.582-25.361 127.35-64.445v0zM386.873 680.453l163.527 59.519c15.184 5.526 31.973-2.302 37.499-17.486l35.774-98.289c5.526-15.184-2.302-31.973-17.486-37.499l-163.527-59.519c-15.184-5.526-31.973 2.302-37.499 17.486l-35.774 98.289c-5.526 15.184 2.302 31.973 17.486 37.499zM594.173 195.16c0-66.329-53.77-120.099-120.099-120.099s-120.099 53.77-120.099 120.099c0 66.329 53.77 120.099 120.099 120.099s120.099-53.77 120.099-120.099z" />
<glyph unicode="&#xe910;" glyph-name="spos" data-tags="spos" d="M512-57.351c279.097 0 505.351 226.253 505.351 505.351s-226.253 505.351-505.351 505.351c-279.097 0-505.351-226.253-505.351-505.351s226.253-505.351 505.351-505.351v0 0zM512 9.143c-242.374 0-438.857 196.483-438.857 438.857s196.483 438.857 438.857 438.857c242.374 0 438.857-196.483 438.857-438.857s-196.483-438.857-438.857-438.857v0 0zM240.473 325.806v0c-29.713 0-54.291-24.409-54.291-54.519v-54.69c0-30.36 24.25-54.519 54.164-54.519h540.034c29.931 0 54.164 24.409 54.164 54.519v54.69c0 30.36-20.525 54.519-45.844 54.519 0 0-9.824 117.884-26.196 255.415-10.112 84.938-68.766 72.040-68.766 72.040h-63.358v36.020h83.005v70.217c0 29.929-24.403 54.216-54.505 54.216h-136.582c-30.059 0-54.505-24.273-54.505-54.216v-70.217h87.379v-36.020h-224.911c-30.592 0-62.217 6.549-68.766-62.217-9.824-114.609-19.647-265.239-21.023-265.239zM533.394 777.694h111.116c14.528 0 26.306-11.628 26.306-26.196 0-14.468-11.775-26.196-26.306-26.196h-111.116c-14.528 0-26.306 11.628-26.306 26.196 0 14.468 11.775 26.196 26.306 26.196zM304.066 528.828c0 25.319 20.284 45.844 45.997 45.844h84.831c25.404 0 45.997-20.348 45.997-45.844 0-25.319-20.284-45.844-45.997-45.844h-84.831c-25.404 0-45.997 20.348-45.997 45.844v0 0zM624.972 548.475c0 14.468 11.928 26.196 26.024 26.196h6.893c14.373 0 26.024-11.628 26.024-26.196 0-14.468-11.928-26.196-26.024-26.196h-6.893c-14.373 0-26.024 11.628-26.024 26.196v0 0zM533.285 548.475c0 14.468 11.928 26.196 26.024 26.196h6.893c14.373 0 26.024-11.628 26.024-26.196 0-14.468-11.928-26.196-26.024-26.196h-6.893c-14.373 0-26.024 11.628-26.024 26.196v0 0zM624.972 469.886c0 14.468 11.928 26.196 26.024 26.196h6.893c14.373 0 26.024-11.628 26.024-26.196 0-14.468-11.928-26.196-26.024-26.196h-6.893c-14.373 0-26.024 11.628-26.024 26.196v0 0zM533.285 469.886c0 14.468 11.928 26.196 26.024 26.196h6.893c14.373 0 26.024-11.628 26.024-26.196 0-14.468-11.928-26.196-26.024-26.196h-6.893c-14.373 0-26.024 11.628-26.024 26.196v0 0zM624.972 391.297c0 14.468 11.928 26.196 26.024 26.196h6.893c14.373 0 26.024-11.628 26.024-26.196 0-14.468-11.928-26.196-26.024-26.196h-6.893c-14.373 0-26.024 11.628-26.024 26.196v0 0zM533.285 391.297c0 14.468 11.928 26.196 26.024 26.196h6.893c14.373 0 26.024-11.628 26.024-26.196 0-14.468-11.928-26.196-26.024-26.196h-6.893c-14.373 0-26.024 11.628-26.024 26.196v0 0zM258.192 286.511h497.792c18.068 0 32.716-14.535 32.716-32.746 0-18.085-14.488-32.746-32.716-32.746h-497.792c-18.068 0-32.716 14.535-32.716 32.746 0 18.085 14.488 32.746 32.716 32.746v0z" />
<glyph unicode="&#xe911;" glyph-name="tool_rental" data-tags="tool_rental" d="M512-57.679c279.279 0 505.679 226.4 505.679 505.679s-226.4 505.679-505.679 505.679c-279.279 0-505.679-226.4-505.679-505.679s226.4-505.679 505.679-505.679v0 0zM512 5.531c-244.369 0-442.469 198.1-442.469 442.469s198.1 442.469 442.469 442.469c244.369 0 442.469-198.1 442.469-442.469s-198.1-442.469-442.469-442.469v0 0zM439.266 675.894c31.973 0 63.97 0.024 95.943-0.024 30.268-0.048 51.37-20.877 51.441-51.099 0.118-48.555 0.118-97.109-0.024-145.664-0.095-28.272-21.457-49.72-49.617-49.839-34.531-0.143-69.062-0.166-103.616 0.119-5.353 0.048-7.579-1.783-9.237-6.634-14.21-41.921-23.471-84.983-29.297-128.829-2.345-17.691 2.96-32.766 15.868-45.368 13.5-13.221 17.384-28.32 10.847-42.491-7.437-16.121-20.794-23.421-38.178-23.469-29.178-0.095-58.333-0.071-87.511-0.024-34.483 0.071-56.415 24.254-52.862 58.803 3.955 38.378 11.131 76.185 23.707 112.708 6.489 18.88 14.163 37.355 22.073 55.712 7.437 17.239 4.784 27.678-11.108 37.807-37.515 23.921-57.978 58.066-59.257 102.721-1.8 63.154 45.307 117.44 108.116 123.765 24.584 2.497 49.546 1.403 74.343 1.783 12.789 0.19 25.578 0.024 38.368 0.024zM611.508 478.539v147.994c7.579 0 14.921 0.309 22.215-0.19 2.155-0.143 4.429-2.259 6.158-3.971 13.831-13.72 27.402-27.701 41.423-41.231 2.416-2.33 6.513-3.995 9.876-4.114 13.263-0.476 26.526-0.19 40.949-0.19-1.421-2.14-2.132-3.638-3.221-4.732-29.818-30.008-59.636-60.016-89.619-89.833-2.084-2.045-5.637-3.305-8.621-3.567-6.063-0.547-12.221-0.166-19.16-0.166zM420.35 306.657c7.65 33.456 14.992 65.556 22.121 96.658 2.439 0.737 2.913 0.999 3.41 1.022 28.397 2.021 41.967-4.613 39.907-38.354-0.687-11.509 0.095-23.112-0.189-34.668-0.308-13.744-9-23.659-22.594-24.491-13.215-0.808-26.526-0.166-42.654-0.166zM734.007 527.507c16.673 16.835 31.902 32.267 47.249 47.58 0.971 0.975 2.7 1.641 4.097 1.641 14.708 0.119 29.415 0.071 44.146 0.071 0.545-0.785 1.089-1.569 1.634-2.378-3.6-3.067-7.389-5.945-10.752-9.25-11.297-11.152-22.357-22.518-33.702-33.646-1.871-1.807-4.595-3.781-6.987-3.852-14.518-0.333-29.060-0.166-45.686-0.166zM882.167 575.289c6.821-7.276 14.447-15.408 24.063-25.68-6.892-6.111-14.684-13.078-22.547-19.95-1.089-0.951-2.605-1.997-3.908-2.021-15.229-0.143-30.457-0.095-45.117-0.095 15.844 15.931 31.594 31.744 47.509 47.746z" />
<glyph unicode="&#xe912;" glyph-name="top_30" data-tags="top_30" d="M512-64c282.77 0 512 229.23 512 512s-229.23 512-512 512c-282.77 0-512-229.23-512-512s229.23-512 512-512v0 0zM499.639 341.524c0 0 0 0-217.66-274.111-128.64 77.915-214.611 219.211-214.611 380.587 0 245.563 199.068 444.632 444.632 444.632s444.632-199.068 444.632-444.632c0-166.341-91.343-311.348-226.606-387.598l-230.387 281.122zM468.71 592.581c11.562-3.896 20.171-10.274 25.826-19.134s8.483-29.627 8.483-62.303c0-24.255-2.765-43.075-8.294-56.459s-15.081-23.564-28.654-30.539c-13.573-6.975-30.978-10.462-52.217-10.462-24.129 0-43.075 4.053-56.836 12.159s-22.81 18.034-27.146 29.785c-4.336 11.751-6.504 32.141-6.504 61.172v24.129h76.158v-49.578c0-13.196 0.785-21.584 2.356-25.166s5.058-5.373 10.462-5.373c5.907 0 9.803 2.262 11.688 6.786s2.828 16.337 2.828 35.44v21.113c0 11.688-1.32 20.233-3.959 25.637s-6.535 8.954-11.688 10.651c-5.153 1.697-15.144 2.671-29.973 2.922v44.3c18.097 0 29.282 0.691 33.555 2.074s7.352 4.399 9.237 9.049c1.885 4.65 2.828 11.939 2.828 21.867v16.966c0 10.682-1.1 17.72-3.299 21.113s-5.624 5.090-10.274 5.090c-5.278 0-8.891-1.791-10.839-5.373s-2.922-11.216-2.922-22.904v-25.072h-76.158v26.014c0 29.156 6.661 48.856 19.982 59.098s34.497 15.364 63.528 15.364c36.32 0 60.952-7.1 73.896-21.302s19.417-33.932 19.417-59.192c0-17.092-2.325-29.439-6.975-37.042s-12.819-14.547-24.506-20.83v0 0zM710.003 621.611v-101.796c0-23.124-1.257-39.964-3.77-50.521s-7.729-20.422-15.646-29.596c-7.917-9.174-17.469-15.772-28.654-19.794s-23.689-6.032-37.514-6.032c-18.223 0-33.366 2.105-45.431 6.315s-21.679 10.776-28.842 19.699c-7.163 8.923-12.253 18.317-15.269 28.182s-4.524 25.543-4.524 47.033v106.508c0 28.025 2.419 49.013 7.258 62.963s14.452 25.135 28.842 33.555c14.39 8.42 31.827 12.63 52.312 12.63 16.715 0 31.67-2.922 44.865-8.766s23.061-12.976 29.596-21.396c6.535-8.42 10.965-17.908 13.29-28.465s3.487-27.397 3.487-50.521v0 0zM633.845 647.249c0 16.212-0.785 26.36-2.356 30.444s-5.247 6.127-11.028 6.127c-5.655 0-9.394-2.168-11.216-6.504s-2.733-14.358-2.733-30.067v-148.923c0-17.72 0.848-28.402 2.545-32.047s5.373-5.467 11.028-5.467c5.655 0 9.363 2.136 11.122 6.409s2.639 13.887 2.639 28.842v151.185z" />
<glyph unicode="&#xe913;" glyph-name="volumne_value_program" data-tags="volumne_value_program" d="M512-57.351c279.097 0 505.351 226.253 505.351 505.351s-226.253 505.351-505.351 505.351c-279.097 0-505.351-226.253-505.351-505.351s226.253-505.351 505.351-505.351v0 0zM512 9.143c-242.374 0-438.857 196.483-438.857 438.857s196.483 438.857 438.857 438.857c242.374 0 438.857-196.483 438.857-438.857s-196.483-438.857-438.857-438.857v0 0zM355.598 586.313c0 13.362-4.727 24.77-14.181 34.224s-20.862 14.181-34.224 14.181c-13.362 0-24.77-4.727-34.224-14.181s-14.181-20.862-14.181-34.224c0-13.362 4.727-24.77 14.181-34.224s20.862-14.181 34.224-14.181c13.362 0 24.77 4.727 34.224 14.181s14.181 20.862 14.181 34.224v0 0zM759.097 368.491c0-13.362-4.664-24.707-13.992-34.035l-185.678-186.056c-9.832-9.328-21.303-13.992-34.413-13.992-13.362 0-24.707 4.664-34.035 13.992l-270.386 270.764c-9.58 9.328-17.711 22.059-24.391 38.194s-10.021 30.883-10.021 44.245v157.315c0 13.11 4.79 24.454 14.37 34.035s20.925 14.37 34.035 14.37h157.315c13.362 0 28.11-3.34 44.245-10.021s28.992-14.811 38.573-24.391l270.386-270.008c9.328-9.832 13.992-21.303 13.992-34.413v0 0zM904.312 368.491c0-13.362-4.664-24.707-13.992-34.035l-185.678-186.056c-9.832-9.328-21.303-13.992-34.413-13.992-9.076 0-16.513 1.765-22.312 5.294s-12.479 9.202-20.043 17.017l177.736 177.736c9.328 9.328 13.992 20.673 13.992 34.035 0 13.11-4.664 24.58-13.992 34.413l-270.386 270.008c-9.58 9.58-22.438 17.711-38.573 24.391s-30.883 10.021-44.245 10.021h84.708c13.362 0 28.11-3.34 44.245-10.021s28.992-14.811 38.573-24.391l270.386-270.008c9.328-9.832 13.992-21.303 13.992-34.413v0 0z" />
<glyph unicode="&#xe914;" glyph-name="fuel_rewards" data-tags="fuel_rewards" d="M509.602-59.204c281.445 0 509.602 228.157 509.602 509.602s-228.157 509.602-509.602 509.602c-281.445 0-509.602-228.157-509.602-509.602s228.157-509.602 509.602-509.602v0zM509.602 4.497c-246.265 0-445.902 199.637-445.902 445.902s199.637 445.902 445.902 445.902c246.265 0 445.902-199.637 445.902-445.902s-199.637-445.902-445.902-445.902v0zM805.144 621.44l0.489 0.48-120.167 119.845-34.197-34.196 68.078-68.062c-30.337-11.616-51.948-40.812-51.948-75.166 0-44.513 36.134-80.647 80.646-80.647 11.452 0 22.43 2.418 32.259 6.774v-232.586c0-17.736-14.523-32.259-32.259-32.259s-32.259 14.523-32.259 32.259v145.165c0 35.644-28.872 64.518-64.518 64.518h-32.259v225.811c0.001 35.647-28.872 64.518-64.517 64.518h-193.552c-35.647 0-64.518-28.872-64.518-64.518v-516.142h322.588v241.942h48.389v-161.295c0-44.513 36.134-80.647 80.646-80.647 44.513 0 80.647 36.134 80.647 80.647v306.459c0 22.258-9.041 42.418-23.548 57.099v0zM554.491 532.083h-193.552v161.294h193.553v-161.294h-0.001zM748.044 532.083c-17.736 0-32.259 14.515-32.259 32.259s14.523 32.259 32.259 32.259c17.735 0 32.259-14.515 32.259-32.259s-14.523-32.259-32.259-32.259v0zM419.727 314.254v0c-0.198-11.265 2.767-20.158 8.893-26.679s13.735-10.672 22.826-12.45v61.956c-0.988 0.395-2.322 0.84-4.002 1.334s-3.508 0.939-5.484 1.334c-7.312 1.976-14.525 4.298-21.64 6.966s-13.488 6.225-19.12 10.672c-5.632 4.447-10.128 9.98-13.488 16.601s-5.039 14.871-5.039 24.753c0 10.079 1.927 18.972 5.781 26.679s8.943 14.18 15.267 19.417c6.324 5.237 13.636 9.288 21.936 12.154s16.897 4.595 25.79 5.188v22.826h17.49v-22.826c8.893-0.988 17.243-2.915 25.049-5.781s14.674-6.818 20.602-11.858c5.929-5.039 10.771-11.314 14.525-18.824s5.929-16.403 6.522-26.679h-42.094c-0.198 7.905-2.668 14.624-7.411 20.158s-10.474 8.3-17.193 8.3v-52.47c2.372-0.593 4.792-1.186 7.263-1.779s5.089-1.285 7.856-2.075c14.624-3.953 25.889-8.844 33.794-14.674s13.735-11.907 17.49-18.231c3.755-6.324 5.978-12.648 6.67-18.972s1.038-11.956 1.038-16.897c0-4.348-1.087-9.832-3.261-16.452s-6.077-13.093-11.709-19.417c-5.632-6.324-13.191-11.956-22.678-16.897s-21.64-7.905-36.462-8.893v-25.197h-17.49v25.197c-22.134 1.581-39.426 8.399-51.877 20.454s-19.664 29.742-21.64 53.062h41.798zM468.936 275.124v56.916c11.66-3.162 19.911-6.67 24.753-10.524s7.263-9.634 7.263-17.342c0-4.743-0.988-8.844-2.964-12.302s-4.496-6.373-7.559-8.745c-3.063-2.372-6.522-4.2-10.375-5.484s-7.559-2.124-11.116-2.52v0zM451.446 427.493v-48.319c-9.486 2.174-16.304 5.039-20.454 8.597s-6.225 8.597-6.225 15.118c0 4.15 0.741 7.757 2.223 10.82s3.508 5.632 6.077 7.707c2.569 2.075 5.435 3.607 8.597 4.595s6.423 1.482 9.782 1.482v0z" />
<glyph unicode="&#xe915;" glyph-name="gas_rewards_2" data-tags="gas_rewards_2" horiz-adv-x="922" d="M880.828 723.736l0.846 0.832-208.064 207.506-59.211-59.209 117.873-117.846c-52.528-20.113-89.946-70.664-89.946-130.145 0-77.072 62.564-139.637 139.635-139.637 19.829 0 38.837 4.187 55.854 11.729v-402.71c0-30.71-25.146-55.854-55.854-55.854s-55.854 25.146-55.854 55.854v251.347c0 61.717-49.99 111.71-111.71 111.71h-55.854v390.98c0.002 61.72-49.99 111.71-111.708 111.71h-335.126c-61.72 0-111.71-49.99-111.71-111.71v-893.673h558.545v418.91h83.783v-279.274c0-77.072 62.564-139.637 139.635-139.637s139.637 62.564 139.637 139.637v530.618c0 38.538-15.655 73.445-40.772 98.863v0zM446.836 569.018h-335.126v279.272h335.128v-279.272h-0.002zM781.963 569.018c-30.71 0-55.854 25.132-55.854 55.854s25.146 55.854 55.854 55.854c30.708 0 55.854-25.132 55.854-55.854s-25.146-55.854-55.854-55.854v0zM213.498 191.858v0c-0.342-19.504 4.79-34.902 15.398-46.194s23.781-18.478 39.522-21.557v107.273c-1.711 0.684-4.021 1.454-6.929 2.31s-6.074 1.625-9.495 2.31c-12.661 3.422-25.15 7.442-37.469 12.062s-23.354 10.779-33.106 18.478c-9.752 7.699-17.537 17.28-23.354 28.743s-8.726 25.749-8.726 42.858c0 17.451 3.336 32.849 10.009 46.194s15.484 24.551 26.433 33.619c10.95 9.068 23.61 16.082 37.982 21.044s29.256 7.956 44.654 8.982v39.522h30.283v-39.522c15.398-1.711 29.855-5.047 43.371-10.009s25.407-11.805 35.672-20.531c10.265-8.726 18.649-19.59 25.15-32.592s10.265-28.401 11.292-46.194h-72.884c-0.342 13.687-4.619 25.321-12.832 34.902s-18.135 14.371-29.77 14.371v-90.848c4.106-1.027 8.298-2.053 12.575-3.080s8.811-2.224 13.602-3.593c25.321-6.844 44.825-15.312 58.512-25.407s23.781-20.616 30.283-31.566c6.501-10.95 10.351-21.899 11.549-32.849s1.796-20.702 1.796-29.256c0-7.528-1.882-17.023-5.646-28.486s-10.522-22.669-20.274-33.619c-9.752-10.95-22.84-20.702-39.265-29.256s-37.468-13.687-63.132-15.398v-43.628h-30.283v43.628c-38.324 2.737-68.264 14.542-89.822 35.415s-34.047 51.498-37.469 91.875h72.371zM298.701 124.107v98.547c20.189-5.475 34.474-11.548 42.858-18.221s12.575-16.681 12.575-30.026c0-8.212-1.711-15.312-5.133-21.301s-7.785-11.035-13.088-15.141c-5.304-4.106-11.292-7.271-17.964-9.495s-13.088-3.678-19.248-4.363v0zM268.418 387.926v-83.663c-16.425 3.764-28.23 8.726-35.415 14.885s-10.779 14.885-10.779 26.177c0 7.186 1.283 13.43 3.85 18.734s6.074 9.752 10.522 13.345c4.448 3.593 9.41 6.245 14.885 7.956s11.121 2.566 16.938 2.566v0z" />
<glyph unicode="&#xe916;" glyph-name="t2c_error" data-tags="t2c_error" horiz-adv-x="1011" d="M550.827 171.561c0 12.245-4.36 22.727-13.080 31.447s-19.202 13.080-31.447 13.080c-12.245 0-22.727-4.36-31.447-13.080s-13.080-19.202-13.080-31.447c0-12.245 4.36-22.727 13.080-31.447s19.202-13.080 31.447-13.080c12.245 0 22.727 4.36 31.447 13.080s13.080 19.202 13.080 31.447v0zM666.597 260.615v391.837c0 4.824-1.763 8.998-5.288 12.523s-7.699 5.288-12.523 5.288h-284.972c-4.824 0-8.998-1.763-12.523-5.288s-5.288-7.699-5.288-12.523v-391.837c0-4.824 1.763-8.998 5.288-12.523s7.699-5.288 12.523-5.288h284.972c4.824 0 8.998 1.763 12.523 5.288s5.288 7.699 5.288 12.523v0zM559.733 732.6c0 5.937-2.968 8.905-8.905 8.905h-89.054c-5.937 0-8.905-2.968-8.905-8.905s2.968-8.905 8.905-8.905h89.054c5.937 0 8.905 2.968 8.905 8.905v0zM720.030 741.506v-569.944c0-19.295-7.050-35.993-21.15-50.093s-30.798-21.15-50.093-21.15h-284.972c-19.295 0-35.993 7.050-50.093 21.15s-21.15 30.798-21.15 50.093v569.944c0 19.295 7.050 35.993 21.15 50.093s30.798 21.15 50.093 21.15h284.972c19.295 0 35.993-7.050 50.093-21.15s21.15-30.798 21.15-50.093v0zM502.984-54.532c277.79 0 502.984 225.193 502.984 502.984s-225.193 502.984-502.984 502.984c-277.79 0-502.984-225.193-502.984-502.984s225.193-502.984 502.984-502.984v0zM502.984 8.341c-243.066 0-440.111 197.044-440.111 440.111s197.044 440.111 440.111 440.111c243.066 0 440.111-197.044 440.111-440.111s-197.044-440.111-440.111-440.111v0zM591.614 384.756c0-3.958-1.385-7.322-4.156-10.093l-20.186-20.186c-2.771-2.771-6.135-4.156-10.093-4.156s-7.322 1.385-10.093 4.156l-43.636 43.636-43.636-43.636c-2.771-2.771-6.135-4.156-10.093-4.156s-7.322 1.385-10.093 4.156l-20.186 20.186c-2.771 2.771-4.156 6.135-4.156 10.093s1.385 7.322 4.156 10.093l43.636 43.636-43.636 43.636c-2.771 2.771-4.156 6.135-4.156 10.093s1.385 7.322 4.156 10.093l20.186 20.186c2.771 2.771 6.135 4.156 10.093 4.156s7.322-1.385 10.093-4.156l43.636-43.636 43.636 43.636c2.771 2.771 6.135 4.156 10.093 4.156s7.322-1.385 10.093-4.156l20.186-20.186c2.771-2.771 4.156-6.135 4.156-10.093s-1.385-7.322-4.156-10.093l-43.636-43.636 43.636-43.636c2.771-2.771 4.156-6.135 4.156-10.093v0z" />
<glyph unicode="&#xe917;" glyph-name="t2c_pending" data-tags="t2c_pending" horiz-adv-x="1011" d="M550.827 166.827c0 12.245-4.36 22.727-13.080 31.447s-19.202 13.080-31.447 13.080c-12.245 0-22.727-4.36-31.447-13.080s-13.080-19.202-13.080-31.447c0-12.245 4.36-22.727 13.080-31.447s19.202-13.080 31.447-13.080c12.245 0 22.727 4.36 31.447 13.080s13.080 19.202 13.080 31.447v0zM666.597 255.881v391.837c0 4.824-1.763 8.998-5.288 12.523s-7.699 5.288-12.523 5.288h-284.972c-4.824 0-8.998-1.763-12.523-5.288s-5.288-7.699-5.288-12.523v-391.837c0-4.824 1.763-8.998 5.288-12.523s7.699-5.288 12.523-5.288h284.972c4.824 0 8.998 1.763 12.523 5.288s5.288 7.699 5.288 12.523v0zM559.733 727.866c0 5.937-2.968 8.905-8.905 8.905h-89.054c-5.937 0-8.905-2.968-8.905-8.905s2.968-8.905 8.905-8.905h89.054c5.937 0 8.905 2.968 8.905 8.905v0zM720.030 736.772v-569.944c0-19.295-7.050-35.993-21.15-50.093s-30.798-21.15-50.093-21.15h-284.972c-19.295 0-35.993 7.050-50.093 21.15s-21.15 30.798-21.15 50.093v569.944c0 19.295 7.050 35.993 21.15 50.093s30.798 21.15 50.093 21.15h284.972c19.295 0 35.993-7.050 50.093-21.15s21.15-30.798 21.15-50.093v0zM502.984-54.984c277.79 0 502.984 225.193 502.984 502.984s-225.193 502.984-502.984 502.984c-277.79 0-502.984-225.193-502.984-502.984s225.193-502.984 502.984-502.984v0zM502.984 7.889c-243.066 0-440.111 197.044-440.111 440.111s197.044 440.111 440.111 440.111c243.066 0 440.111-197.044 440.111-440.111s-197.044-440.111-440.111-440.111v0zM385.662 440.519c0 8.762 2.595 15.524 7.786 20.286s12.738 7.143 22.643 7.143c9.429 0 16.667-2.381 21.714-7.143s7.571-11.524 7.571-20.286c0-8.571-2.595-15.262-7.786-20.071s-12.357-7.214-21.5-7.214c-9.429 0-16.857 2.381-22.286 7.143s-8.143 11.476-8.143 20.143v0zM470.234 440.519c0 8.762 2.595 15.524 7.786 20.286s12.738 7.143 22.643 7.143c9.429 0 16.667-2.381 21.714-7.143s7.571-11.524 7.571-20.286c0-8.571-2.595-15.262-7.786-20.071s-12.357-7.214-21.5-7.214c-9.429 0-16.857 2.381-22.286 7.143s-8.143 11.476-8.143 20.143v0zM554.805 440.519c0 8.762 2.595 15.524 7.786 20.286s12.738 7.143 22.643 7.143c9.429 0 16.667-2.381 21.714-7.143s7.571-11.524 7.571-20.286c0-8.571-2.595-15.262-7.786-20.071s-12.357-7.214-21.5-7.214c-9.429 0-16.857 2.381-22.286 7.143s-8.143 11.476-8.143 20.143v0z" />
<glyph unicode="&#xe918;" glyph-name="t2c_success" data-tags="t2c_success" d="M558.075 169.865c0 12.406-4.417 23.026-13.252 31.861s-19.455 13.252-31.861 13.252c-12.406 0-23.026-4.417-31.861-13.252s-13.252-19.455-13.252-31.861c0-12.406 4.417-23.026 13.252-31.861s19.455-13.252 31.861-13.252c12.406 0 23.026 4.417 31.861 13.252s13.252 19.455 13.252 31.861v0zM675.368 260.090v396.992c0 4.887-1.786 9.117-5.357 12.688s-7.801 5.357-12.688 5.357h-288.722c-4.887 0-9.117-1.786-12.688-5.357s-5.357-7.801-5.357-12.688v-396.992c0-4.887 1.786-9.117 5.357-12.688s7.801-5.357 12.688-5.357h288.722c4.887 0 9.117 1.786 12.688 5.357s5.357 7.801 5.357 12.688v0zM567.098 738.286c0 6.015-3.007 9.023-9.023 9.023h-90.226c-6.015 0-9.023-3.007-9.023-9.023s3.007-9.023 9.023-9.023h90.226c6.015 0 9.023 3.007 9.023 9.023v0zM729.504 747.308v-577.444c0-19.549-7.143-36.466-21.429-50.752s-31.203-21.429-50.752-21.429h-288.722c-19.549 0-36.466 7.143-50.752 21.429s-21.429 31.203-21.429 50.752v577.444c0 19.549 7.143 36.466 21.429 50.752s31.203 21.429 50.752 21.429h288.722c19.549 0 36.466-7.143 50.752-21.429s21.429-31.203 21.429-50.752v0zM509.602-59.204c281.445 0 509.602 228.157 509.602 509.602s-228.157 509.602-509.602 509.602c-281.445 0-509.602-228.157-509.602-509.602s228.157-509.602 509.602-509.602v0zM509.602 4.497c-246.265 0-445.902 199.637-445.902 445.902s199.637 445.902 445.902 445.902c246.265 0 445.902-199.637 445.902-445.902s-199.637-445.902-445.902-445.902v0zM628.541 499.549c0-4.010-1.403-7.419-4.211-10.226l-129.323-129.323c-2.807-2.807-6.216-4.211-10.226-4.211s-7.419 1.403-10.226 4.211l-74.887 74.887c-2.807 2.807-4.211 6.216-4.211 10.226s1.403 7.419 4.211 10.226l20.451 20.451c2.807 2.807 6.216 4.211 10.226 4.211s7.419-1.403 10.226-4.211l44.211-44.361 98.647 98.797c2.807 2.807 6.216 4.211 10.226 4.211s7.419-1.403 10.226-4.211l20.451-20.451c2.807-2.807 4.211-6.216 4.211-10.226v0z" />
<glyph unicode="&#xe919;" glyph-name="log_out" data-tags="log_out" d="M509.602-59.204c281.445 0 509.602 228.157 509.602 509.602s-228.157 509.602-509.602 509.602c-281.445 0-509.602-228.157-509.602-509.602s228.157-509.602 509.602-509.602v0zM509.602 4.497c-246.265 0-445.902 199.637-445.902 445.902s199.637 445.902 445.902 445.902c246.265 0 445.902-199.637 445.902-445.902s-199.637-445.902-445.902-445.902v0zM483.128 241.564c0-1.003 0.125-3.509 0.376-7.519s0.313-7.331 0.188-9.962c-0.125-2.632-0.501-5.576-1.128-8.835s-1.88-5.702-3.759-7.331c-1.88-1.629-4.449-2.444-7.707-2.444h-120.301c-29.825 0-55.326 10.589-76.504 31.767s-31.767 46.679-31.767 76.504v264.662c0 29.825 10.589 55.326 31.767 76.504s46.679 31.767 76.504 31.767h120.301c3.258 0 6.078-1.19 8.459-3.571s3.571-5.2 3.571-8.459c0-1.003 0.125-3.509 0.376-7.519s0.313-7.331 0.188-9.962c-0.125-2.632-0.501-5.576-1.128-8.835s-1.88-5.702-3.759-7.331c-1.88-1.629-4.449-2.444-7.707-2.444h-120.301c-16.541 0-30.702-5.89-42.481-17.669s-17.669-25.94-17.669-42.481v-264.662c0-16.541 5.89-30.702 17.669-42.481s25.94-17.669 42.481-17.669h117.293c0.752 0 2.193-0.125 4.323-0.376s3.571-0.627 4.323-1.128c0.752-0.501 1.754-1.19 3.008-2.068s2.13-2.005 2.632-3.383c0.501-1.378 0.752-3.070 0.752-5.075v0zM832 446.075c0-6.516-2.381-12.155-7.143-16.917l-204.511-204.511c-4.762-4.762-10.401-7.143-16.917-7.143s-12.155 2.381-16.917 7.143c-4.762 4.762-7.143 10.401-7.143 16.917v108.271h-168.421c-6.516 0-12.155 2.381-16.917 7.143s-7.143 10.401-7.143 16.917v144.361c0 6.516 2.381 12.155 7.143 16.917s10.401 7.143 16.917 7.143h168.421v108.271c0 6.516 2.381 12.155 7.143 16.917s10.401 7.143 16.917 7.143c6.516 0 12.155-2.381 16.917-7.143l204.511-204.511c4.762-4.762 7.143-10.401 7.143-16.917v0z" />
<glyph unicode="&#xe91a;" glyph-name="email" data-tags="email" d="M509.602-59.204c281.445 0 509.602 228.157 509.602 509.602s-228.157 509.602-509.602 509.602c-281.445 0-509.602-228.157-509.602-509.602s228.157-509.602 509.602-509.602v0zM509.602 4.497c-246.265 0-445.902 199.637-445.902 445.902s199.637 445.902 445.902 445.902c246.265 0 445.902-199.637 445.902-445.902s-199.637-445.902-445.902-445.902v0zM821.895 538.842v-268.647c0-14.887-5.301-27.632-15.902-38.233s-23.346-15.902-38.233-15.902h-498.045c-14.887 0-27.632 5.301-38.233 15.902s-15.902 23.346-15.902 38.233v268.647c9.925-11.053 21.316-20.865 34.173-29.436 81.655-55.489 137.707-94.398 168.158-116.729 12.857-9.474 23.289-16.861 31.297-22.162s18.665-10.714 31.974-16.241c13.308-5.526 25.714-8.289 37.218-8.289h0.677c11.504 0 23.91 2.763 37.218 8.289s23.966 10.94 31.974 16.241c8.008 5.301 18.44 12.688 31.297 22.162 38.346 27.744 94.511 66.654 168.496 116.729 12.857 8.797 24.135 18.609 33.835 29.436v0zM821.895 638.316c0-17.82-5.526-34.85-16.579-51.090s-24.812-30.113-41.278-41.617c-84.812-58.872-137.594-95.526-158.346-109.962-2.256-1.579-7.049-5.019-14.38-10.32s-13.421-9.586-18.271-12.857c-4.85-3.271-10.714-6.936-17.594-10.996s-13.365-7.105-19.455-9.135c-6.090-2.030-11.729-3.045-16.917-3.045h-0.677c-5.188 0-10.827 1.015-16.917 3.045s-12.575 5.075-19.455 9.135c-6.88 4.060-12.744 7.726-17.594 10.996s-10.94 7.556-18.271 12.857c-7.331 5.301-12.124 8.741-14.38 10.32-20.526 14.436-50.075 35.019-88.647 61.748s-61.692 42.801-69.361 48.214c-13.985 9.474-27.18 22.5-39.586 39.079s-18.609 31.974-18.609 46.184c0 17.594 4.68 32.256 14.041 43.985s22.725 17.594 40.094 17.594h498.045c14.662 0 27.35-5.301 38.064-15.902s16.071-23.346 16.071-38.233v0z" />
<glyph unicode="&#xe91b;" glyph-name="my_projects" data-tags="my_projects" d="M509.602-59.204c281.445 0 509.602 228.157 509.602 509.602s-228.157 509.602-509.602 509.602c-281.445 0-509.602-228.157-509.602-509.602s228.157-509.602 509.602-509.602v0zM509.602 4.497c-246.265 0-445.902 199.637-445.902 445.902s199.637 445.902 445.902 445.902c246.265 0 445.902-199.637 445.902-445.902s-199.637-445.902-445.902-445.902v0zM326.946 784.842l-138.311-138.44 45.729-45.642 60.741 60.784 14.817-14.926-60.719-60.784 47.329-47.156 61.044 61 13.844-13.844-61.022-61 46.702-46.724 138.787 138.657-168.941 168.075zM831.713 279.967l-138.311-138.224-45.729 45.642 60.741 60.784-14.839 14.926-60.719-60.784-47.351 47.373 61.044 61-13.866 13.844-61.044-61-46.702 46.724 138.787 138.657 167.989-168.941zM288.767 380.337l321.982 322.090 137.791-137.791-322.004-322.090-137.77 137.791zM625.588 624.77l-15.142 15.142-259.165-259.143 15.142-15.142 259.165 259.143zM655.872 594.487l-15.142 15.142-259.165-259.143 15.142-15.142 259.165 259.143zM686.156 564.419l-15.142 15.142-259.165-259.359 15.142-14.926 259.165 259.143zM672.615 763.211c8.058 8.13 19.019 12.721 30.466 12.762s22.44-4.473 30.556-12.546l75.948-75.926c8.055-8.123 12.553-19.114 12.504-30.554s-4.64-22.392-12.764-30.446l-46.918-46.94-136.71 136.71 46.918 46.94zM278.319 362.599l130.458-130.653-114.3-40.451-56.739 56.674 40.58 114.43zM272.825 184.357l-66.322-24.227 24.162 66.408 42.159-42.181z" />
</font>
</defs>
</svg>
